<?xml version="1.0" encoding="utf-8"?>
<!-- Generator: Adobe Illustrator 23.0.0, SVG Export Plug-In . SVG Version: 6.00 Build 0)  -->
<svg version="1.1" id="Layer_1" xmlns:svgjs="http://svgjs.com/svgjs"
	 xmlns="http://www.w3.org/2000/svg" xmlns:xlink="http://www.w3.org/1999/xlink" x="0px" y="0px" viewBox="0 0 512 512"
	 style="enable-background:new 0 0 512 512;" xml:space="preserve">
<g>
	<g>
		<path d="M245.5,256.2L405.3,96.3c8.1-8.1,12.2-18,12.2-29.8c0-11.7-4.1-21.6-12.2-29.8l-24.7-24.7C372.5,4.1,362.6,0,350.9,0
			s-21.6,4.1-29.8,12.2L106.7,226.2c-8.1,8.1-12.2,18-12.2,29.8c0,11.7,4.1,21.6,12.2,29.8l214.4,214.1c8.1,8.1,18,12.2,29.8,12.2
			s21.6-4.1,29.8-12.2l24.7-24.7c8.1-8.1,12.2-18,12.2-29.6c0-11.6-4.1-21.6-12.2-29.9L245.5,256.2z"/>
	</g>
</g>
</svg>
