<?xml version="1.0" encoding="utf-8"?>
<!-- Generator: Adobe Illustrator 23.0.0, SVG Export Plug-In . SVG Version: 6.00 Build 0)  -->
<svg version="1.1" id="Layer_1" xmlns:svgjs="http://svgjs.com/svgjs"
	 xmlns="http://www.w3.org/2000/svg" xmlns:xlink="http://www.w3.org/1999/xlink" x="0px" y="0px" viewBox="0 0 512 512"
	 style="enable-background:new 0 0 512 512;" xml:space="preserve">
<g>
	<g>
		<path d="M405.2,226.4L190.9,12.5C183,4.2,173.2,0,161.4,0c-11.8,0-21.7,4.2-29.6,12.5l-25,24.7c-8.1,8.1-12.2,18-12.2,29.6
			c0,11.4,4.1,21.4,12.2,29.9L266.5,256L106.8,415.7c-8.1,8.1-12.2,18-12.2,29.6c0,11.4,4.1,21.4,12.2,29.9l25,24.6
			c8.1,8.1,18,12.2,29.6,12.2c11.6,0,21.5-4.1,29.6-12.2l214.3-213.9c8.1-8.5,12.2-18.5,12.2-29.9
			C417.4,244.4,413.3,234.5,405.2,226.4z"/>
	</g>
</g>
</svg>
